<?xml version="1.0" encoding="UTF-8" standalone="no"?>
<!-- Created with Inkscape (http://www.inkscape.org/) -->

<svg
	width="606.53815"
	height="606.53815"
	viewBox="0 0 606.53815 606.53815"
	version="1.1"
	id="svg1"
	inkscape:version="1.4.2 (f4327f4, 2025-05-13)"
	sodipodi:docname="z4j.svg"
	xml:space="preserve"
	xmlns:inkscape="http://www.inkscape.org/namespaces/inkscape"
	xmlns:sodipodi="http://sodipodi.sourceforge.net/DTD/sodipodi-0.dtd"
	xmlns="http://www.w3.org/2000/svg"
><sodipodi:namedview
     id="namedview1"
     pagecolor="#505050"
     bordercolor="#eeeeee"
     borderopacity="1"
     inkscape:showpageshadow="0"
     inkscape:pageopacity="0"
     inkscape:pagecheckerboard="0"
     inkscape:deskcolor="#505050"
     inkscape:document-units="px"
     inkscape:zoom="0.78808594"
     inkscape:cx="187.79678"
     inkscape:cy="183.35564"
     inkscape:window-width="1920"
     inkscape:window-height="1009"
     inkscape:window-x="-8"
     inkscape:window-y="-8"
     inkscape:window-maximized="1"
     inkscape:current-layer="svg1" /><defs
     id="defs1" /><path
     id="path1"
     style="fill:#0785cb;fill-opacity:1;stroke-width:22.8121;stroke-linecap:round;stroke-linejoin:round;stroke-miterlimit:2;paint-order:markers stroke fill"
     d="M 292.6582 0.18554688 A 303.26907 303.26907 0 0 0 0.08203125 310.34375 A 303.26907 303.26907 0 0 0 306.80664 606.51758 A 303.26907 303.26907 0 0 0 606.53906 303.26953 L 606.20898 289.12305 A 303.26907 303.26907 0 0 0 292.6582 0.18554688 z M 221.38477 116.7832 C 323.13277 116.7832 349.37942 117.03957 349.35742 118.0332 C 349.32542 119.50444 336.3662 136.37574 283.875 203.2832 C 275.6766 213.7332 264.06752 228.5832 258.07812 236.2832 C 233.36603 268.05341 216.09757 290.09306 202.63477 307.04297 C 194.79727 316.91045 188.38477 325.61272 188.38477 326.38281 C 188.38477 327.35038 292.58955 327.67016 331.34375 327.75586 L 331.34375 371.7832 L 207.67188 371.7832 C 114.00297 371.7832 95.384766 371.55923 95.384766 370.43164 C 95.384766 369.68822 103.82227 358.54747 114.13477 345.67578 C 124.44727 332.80412 136.97134 317.10168 141.96484 310.7793 C 146.95844 304.4569 161.36658 286.23319 173.98438 270.2832 C 186.60207 254.33318 205.4404 230.48318 215.8457 217.2832 C 226.251 204.08318 240.07832 186.55511 246.57422 178.33203 C 253.07002 170.10894 258.38477 162.79644 258.38477 162.08203 C 258.38477 161.03256 247.84939 160.7832 203.52539 160.7832 L 150.17383 160.7832 L 184.49805 116.79883 C 195.52205 116.78823 207.77817 116.7832 221.38477 116.7832 z M 381.91211 118.0332 L 429.57812 118.0332 C 429.57813 118.0332 430.01708 338.54407 429.95508 413.58789 L 429.95508 415.1543 L 429.95508 422.67578 L 429.94531 445.39453 C 429.10551 452.69015 427.76722 459.30546 425.89062 465.56445 C 417.25503 494.36601 394.81882 511.19322 364.19922 511.83008 L 361.04883 511.83008 L 340.45312 511.83008 C 309.83353 511.19322 287.39732 494.36601 278.76172 465.56445 C 276.88512 459.30546 275.54683 452.69015 274.70703 445.39453 L 274.69531 422.67578 L 274.69531 415.1543 L 274.69531 413.58789 L 274.69531 406.89062 L 313.33398 406.89062 L 322.375 406.89062 L 322.375 437.42383 C 322.375 454.01788 335.73413 467.37695 352.32812 467.37695 C 368.92224 467.37695 382.28125 454.01788 382.28125 437.42383 L 382.28125 401.73633 C 382.28125 401.53357 382.27148 401.33069 382.27148 401.12891 C 382.25118 327.25409 382.17101 226.75381 381.91211 118.0332 z M 331.34375 214.0625 L 331.34375 272.81641 L 282.80664 272.81641 L 331.34375 214.0625 z " /><path
     style="fill:#0785cb;fill-opacity:1;stroke-width:22.8121;stroke-linecap:round;stroke-linejoin:round;stroke-miterlimit:2;paint-order:markers stroke fill"
     id="path30"
     sodipodi:type="arc"
     sodipodi:cx="-604.74359"
     sodipodi:cy="303.26907"
     sodipodi:rx="303.26907"
     sodipodi:ry="303.26907"
     sodipodi:start="0"
     sodipodi:end="6.2365262"
     sodipodi:open="true"
     sodipodi:arc-type="arc"
     d="M -301.47452,303.26907 A 303.26907,303.26907 0 0 1 -601.20611,606.51751 303.26907,303.26907 0 0 1 -907.93014,310.34356 303.26907,303.26907 0 0 1 -615.35412,0.18567318 303.26907,303.26907 0 0 1 -301.80458,289.12394" /><g
     inkscape:label="Layer 1"
     inkscape:groupmode="layer"
     id="layer1"
     transform="translate(-860.74359,47.269073)" /><path
     style="fill:#ffffff"
     d="m -435.27322,309.99833 v 43.58984 l 12.06445,-0.27734 1.63282,-16.5 c 0.8972,-9.075 1.80081,-18.75 2.00781,-21.5 l 0.375,-5 -14.24414,-0.27735 z"
     id="path28" /><path
     style="fill:#ffffff"
     d="m -507.61892,309.38505 -31.32422,0.18554 c -12.0257,0.0716 -20.96227,0.0936 -27.50977,0.0508 l -36.19922,43.81836 35.70899,0.12695 59.32422,0.21094 z"
     id="path27" /><path
     style="fill:#ffffff"
     d="m -448.11697,166.37528 -46.75977,56.60352 c 0.0349,7.9244 0.0109,18.5414 -0.0566,32.58203 l -0.25976,53.75 c -0.19717,30.00248 -0.18555,90.00005 -0.18555,90.00005 -0.91818,4.35446 -2.31502,7.81924 -4.31055,11.37109 -4.48162,7.97691 -9.06834,9.96418 -24.88671,10.78125 -3.3938,0.17529 -3.49968,0.30997 -4.14844,5.29102 -2.54063,19.50367 -4.32951,34.7734 -4.20313,35.86719 0.19906,1.72274 10.14107,3.31901 19.46875,3.125 30.61968,-0.63686 53.05582,-17.46407 61.69141,-46.26563 1.87661,-6.25899 3.21495,-12.87428 4.05469,-20.16992 l 0.01,-22.71875 0.004,-7.52149 v -1.5664 -63.53516 l -0.23828,-78.43554 z"
     id="path26"
     sodipodi:nodetypes="cccccsscsssccccccc" /><path
     style="fill:#ffffff"
     d="m -695.69314,154.81083 c -13.60656,0 -25.86272,0.005 -36.88672,0.0156 l -34.32422,43.98437 h 53.35156 c 44.32406,0 54.85938,0.24936 54.85938,1.29883 0,0.71442 -5.31475,8.02692 -11.81055,16.25 -6.4959,8.22308 -20.32317,25.75116 -30.72851,38.95118 -10.40534,13.19998 -29.24355,37.04998 -41.86133,53 -12.61779,15.94999 -27.026,34.17369 -32.01953,40.49609 -4.99353,6.32238 -17.51758,22.02482 -27.83008,34.89649 -10.3125,12.87168 -18.75,24.01243 -18.75,24.75585 0,1.12759 18.61825,1.35157 112.28711,1.35157 h 60.88086 l 33.1289,-42.45117 c 0,-1.38601 -32.79687,-1.54883 -32.79687,-1.54883 0,0 -80.5,-0.21179 -80.5,-1.40039 0,-0.77009 6.4125,-9.47237 14.25,-19.33985 13.46288,-16.94991 30.73128,-38.98955 55.44336,-70.75976 5.9894,-7.7 17.59847,-22.55 25.79687,-33 52.4912,-66.90746 65.45042,-83.77877 65.48243,-85.25001 0.0219,-0.99363 -26.22466,-1.25 -127.97266,-1.25 z"
     id="path25" /><path
     style="fill:#ffffff"
     d="m -499.949,140.77567 -3.27539,3.76758 c -1.8016,2.07193 -17.78809,21.54258 -35.52539,43.26758 -17.7374,21.725 -35.24485,43.1 -38.90625,47.5 -15.7588,18.9375 -41.20077,49.89173 -51.23047,62.33008 l -10.8457,13.44922 0.26953,21.11132 0.26953,21.10938 c 26.67647,3.44427 52.25238,-41.53587 78.14453,-72.60156 l 0.006,-0.006 c 6.56237,-8.08846 14.55185,-17.94715 22.28711,-27.50196 41.48958,-51.2492 90.57027,-109.11523 90.57027,-109.11523 l -0.008,-2.77539 -25.87695,-0.26758 z"
     id="path16"
     sodipodi:nodetypes="ccscccccccscccc" /><path
     style="fill:#ffffff"
     d="m -435.27322,353.98954 11.27996,-0.23634 36.19922,-43.81836 -47.47918,-0.33788 z"
     id="path29"
     sodipodi:nodetypes="ccccc" /></svg>
